# AST/ASF file generated using VICON BodyLanguage
# -----------------------------------------------
:version 1.10
:name VICON
:units
  mass 1.0
  length 0.45
  angle deg
:documentation
   .ast/.asf automatically generated from VICON data using
   VICON BodyBuilder and BodyLanguage model FoxedUp or BRILLIANT.MOD
:root
   order TX TY TZ RX RY RZ
   axis XYZ
   position 0 0 0  
   orientation 0 0 0 
:bonedata
  begin
     id 1 
     name lhipjoint
     direction 0.588788 -0.725889 0.355548 
     length 2.37778 
     axis 0 0 0  XYZ
  end
  begin
     id 2 
     name lfemur
     direction 0.34202 -0.939693 0  
     length 6.86393  
     axis 0 0 20  XYZ
    dof rx ry rz
    limits (-160.0 20.0)
           (-70.0 70.0)
           (-60.0 70.0)
  end
  begin
     id 3 
     name ltibia
     direction 0.34202 -0.939693 0   
     length 7.32851   
     axis 0 0 20   XYZ
    dof rx
    limits (-10.0 170.0)
  end
  begin
     id 4 
     name lfoot
     direction 0.0626533 -0.172138 0.983078   
     length 1.98929   
     axis -90 7.62852e-016 20   XYZ
    dof rx rz
    limits (-45.0 90.0)
           (-70.0 20.0)
  end
  begin
     id 5 
     name ltoes
     direction 1.53647e-011 -4.21734e-011 1   
     length 1.00479   
     axis -90 7.62852e-016 20   XYZ
    dof rx
    limits (-90.0 20.0)
  end
  begin
     id 6 
     name rhipjoint
     direction -0.59141 -0.724168 0.354705   
     length 2.38343  
     axis 0 0 0  XYZ 
  end
  begin
     id 7 
     name rfemur
     direction -0.34202 -0.939693 0   
     length 6.95589   
     axis 0 0 -20   XYZ
    dof rx ry rz
    limits (-160.0 20.0)
           (-70.0 70.0)
           (-70.0 60.0)
  end
  begin
     id 8 
     name rtibia
     direction -0.34202 -0.939693 0   
     length 7.32327   
     axis 0 0 -20   XYZ
    dof rx
    limits (-10.0 170.0)
 end
 begin
     id 9 
     name rfoot
     direction -0.0660461 -0.18146 0.981178   
     length 1.85272  
     axis -90 -7.62852e-016 -20   XYZ
    dof rx rz
    limits (-45.0 90.0)
           (-20.0 70.0)
  end
  begin
     id 10 
     name rtoes
     direction -1.53586e-011 -4.21988e-011 1   
     length 0.93746   
     axis -90 -7.62852e-016 -20   XYZ
    dof rx
    limits (-90.0 20.0)
  end
  begin
     id 11 
     name lowerback
     direction -0.0107982 0.991059 0.13299   
     length 1.98691   
     axis 0 0 0   XYZ
    dof rx ry rz
    limits (-20.0 45.0)
           (-30.0 30.0)
           (-30.0 30.0)
  end
  begin
     id 12 
     name upperback
     direction 0.0076296 0.999916 0.0104576   
     length 1.99501   
     axis 0 0 0   XYZ
    dof rx ry rz
    limits (-20.0 45.0)
           (-30.0 30.0)
           (-30.0 30.0)
  end
  begin
     id 13 
     name thorax
     direction 0.01176 0.998615 -0.0512909   
     length 2.03144   
     axis 0 0 0   XYZ
    dof rx ry rz
    limits (-20.0 45.0)
           (-30.0 30.0)
           (-30.0 30.0)
  end
  begin
     id 14 
     name lowerneck
     direction -0.0171909 0.999644 0.0204011   
     length 1.71818   
     axis 0 0 0   XYZ
    dof rx ry rz
    limits (-20.0 45.0)
           (-30.0 30.0)
           (-30.0 30.0)
  end
  begin
     id 15 
     name upperneck
     direction 0.0250902 0.997482 -0.0663316   
     length 1.66199   
     axis 0 0 0   XYZ
    dof rx ry rz
    limits (-20.0 45.0)
           (-30.0 30.0)
           (-30.0 30.0)
  end
  begin
     id 16
     name head
     direction 0.00881535 0.99956 -0.0283365  
     length 1.81545  
     axis 0 0 0   XYZ
    dof rx ry rz
    limits (-20.0 45.0)
           (-30.0 30.0)
           (-30.0 30.0)
  end
  begin
     id 17 
     name lclavicle
     direction 0.840411 0.486876 -0.238035  
     length 3.30409  
     axis 0 0 0   XYZ
    dof ry rz
    limits (-20.0 10.0)
           (0.0 20.0)
  end
  begin
     id 18 
     name lhumerus
     direction 1 -4.48977e-011 -5.16239e-027   
     length 4.62672   
     axis 180 -30 -90   XYZ
    dof rx ry rz
    limits (-60.0 90.0)
           (-90.0 90.0)
           (-90.0 90.0)
  end
  begin
     id 19
     name lradius
     direction 1 -4.48977e-011 -8.71171e-027   
     length 3.11018   
     axis 180 -30 -90   XYZ
    dof rx
    limits (-10.0 170.0)
  end
  begin
     id 20
     name lwrist
     direction 1 -4.48912e-011 -1.03764e-026   
     length 1.55509   
     axis 9.09556e-015 90 90   XYZ
    dof ry
    limits (-180.0 0.0)
 end
  begin
     id 21 
     name lhand
     direction 1 -4.49072e-011 -2.07528e-026   
     length 0.743834   
     axis 1.3242e-014 90 90   XYZ
    dof rx rz
    limits (-90.0 90.0)
           (-45.0 45.0)
  end
  begin
     id 22 
     name lfingers
     direction 1 -4.48909e-011 -4.15056e-026   
     length 0.599698   
     axis 2.64841e-014 90 90   XYZ
    dof rx
    limits (0.0 90.0)
  end
  begin
     id 23
     name lthumb
     direction 0.707107 -6.35013e-011 0.707107   
     length 0.86105   
     axis -90 45 2.85299e-015   XYZ
    dof rx rz
    limits (-45.0 45.0)
           (-45.0 45.0)
  end
  begin
     id 24 
     name rclavicle
     direction -0.835208 0.500237 -0.228452   
     length 3.2716  
     axis 0 0 0   XYZ 
    dof ry rz
    limits (-10.0 20.0)
           (-20.0 0.0)
  end
  begin
     id 25 
     name rhumerus
     direction -1 -4.48978e-011 -5.1953e-028  
     length 4.55919   
     axis 180 30 90   XYZ
    dof rx ry rz
    limits (-90.0 60.0)
           (-90.0 90.0)
           (-90.0 90.0)
  end
  begin
     id 26 
     name rradius
     direction -1 -4.48961e-011 -5.99546e-027   
     length 3.22748   
     axis 180 30 90   XYZ
    dof rx
    limits (-10.0 170.0)
  end
  begin
     id 27 
     name rwrist
     direction -1 -4.48986e-011 -1.03764e-026   
     length 1.61374   
     axis 9.09556e-015 -90 -90   XYZ
    dof ry
    limits (-180.0 0.0)
  end
  begin
     id 28
     name rhand
     direction -1 -4.4899e-011 -2.07528e-026   
     length 0.700882   
     axis 1.3242e-014 -90 -90   XYZ
    dof rx rz
    limits (-90.0 90.0)
           (-45.0 45.0)
  end
  begin
     id 29
     name rfingers
     direction -1 -4.48991e-011 -4.15056e-026   
     length 0.565069   
     axis 2.64841e-014 -90 -90   XYZ
    dof rx
    limits (0.0 90.0)
  end
  begin
     id 30
     name rthumb
     direction -0.707107 -6.34804e-011 0.707107   
     length 0.811329   
     axis -90 -45 -2.85299e-015   XYZ
    dof rx rz
    limits (-45.0 45.0)
           (-45.0 45.0)
  end
:hierarchy
  begin
    root lhipjoint rhipjoint lowerback
    lhipjoint lfemur
    lfemur ltibia
    ltibia lfoot
    lfoot ltoes
    rhipjoint rfemur
    rfemur rtibia
    rtibia rfoot
    rfoot rtoes
    lowerback upperback
    upperback thorax
    thorax lowerneck lclavicle rclavicle
    lowerneck upperneck
    upperneck head
    lclavicle lhumerus
    lhumerus lradius
    lradius lwrist
    lwrist lhand lthumb
    lhand lfingers
    rclavicle rhumerus
    rhumerus rradius
    rradius rwrist
    rwrist rhand rthumb
    rhand rfingers
  end

#!OML:ASF F:\VICON\USERDATA\INSTALL\SteveWalk\SteveWalk.ASF
:FULLY-SPECIFIED
:DEGREES
352
root 0.287639 16.1076 36.5832 17.2438 5.15111 -1.5847
lowerback -15.9888 -0.757423 2.61838
upperback -5.50852 -1.50833 2.81503
thorax 3.11269 -0.738723 1.20245
lowerneck -4.64209 -1.30271 -0.331422
upperneck 9.96794 -1.69812 -0.265575
head 4.08454 -0.863474 -0.114467
rclavicle 9.80257e-015 -2.06736e-014
rhumerus -50.8814 -36.9365 -54.2323
rradius 16.3942
rwrist 19.9491
rhand -15.9948 -35.3856
rfingers 7.12502
rthumb 10.2052 -65.1181
lclavicle 9.80257e-015 -2.06736e-014
lhumerus -29.8591 0.360018 88.8481
lradius 36.4303
lwrist 7.82886
lhand -22.6256 -19.9821
lfingers 7.12502
lthumb 3.80462 9.96364
rfemur -37.5869 0.51314 25.999
rtibia 37.4738
rfoot -17.2195 5.26585
rtoes -2.9272
lfemur -31.383 2.40728 -17.4511
ltibia 75.6009
lfoot 7.82611 -4.60941
ltoes -4.60747
353
root 0.286165 16.1295 36.7904 17.2677 5.16448 -1.67792
lowerback -15.9419 -0.710226 2.63317
upperback -5.68188 -1.43955 2.83737
thorax 2.90438 -0.706534 1.23209
lowerneck -4.30635 -1.25289 -0.327927
upperneck 10.2499 -1.63166 -0.273931
head 4.11848 -0.830987 -0.113396
rclavicle -6.33626e-015 2.38542e-015
rhumerus -47.3008 -32.8744 -59.8959
rradius 17.7129
rwrist 13.886
rhand -16.3529 -35.6428
rfingers 7.12502
rthumb 9.85971 -65.3919
lclavicle -6.33626e-015 2.38542e-015
lhumerus -30.8718 1.32676 88.6799
lradius 34.1772
lwrist 6.26049
lhand -22.2373 -19.3803
lfingers 7.12502
lthumb 4.17965 10.5584
rfemur -36.5251 0.411717 26.2085
rtibia 37.068
rfoot -17.9001 5.23606
rtoes -3.29272
lfemur -32.9865 2.59092 -17.4961
ltibia 75.9722
lfoot 5.82725 -3.96144
ltoes -6.12292
354
root 0.315346 16.1458 36.9865 17.3772 5.46453 -1.47034
lowerback -15.732 -0.757985 2.83597
upperback -5.9977 -1.50341 2.69775
thorax 2.44996 -0.746 0.965154
lowerneck -4.06978 -1.26935 -0.416518
upperneck 10.6573 -1.65482 -0.204667
head 4.2193 -0.842931 -0.0761641
rclavicle 2.22639e-014 -1.11319e-014
rhumerus -45.1008 -29.5861 -63.82
rradius 19.2288
rwrist 9.47422
rhand -16.6228 -35.5418
rfingers 7.12502
rthumb 9.59925 -65.3031
lclavicle 2.22639e-014 -1.11319e-014
lhumerus -32.1923 2.39277 88.3428
lradius 32.1152
lwrist 4.71397
lhand -22.0073 -18.8644
lfingers 7.12502
lthumb 4.40172 11.0698
rfemur -35.6076 -0.606656 26.1938
rtibia 36.6917
rfoot -18.6003 5.83058
rtoes -3.50996
lfemur -34.6155 2.22253 -17.9801
ltibia 76.1204
lfoot 3.9266 -3.04263
ltoes -8.48727
355
root 0.310284 16.1651 37.1922 17.1502 5.24754 -1.55407
lowerback -15.4823 -0.644251 2.81455
upperback -5.99668 -1.33786 2.65561
thorax 2.31838 -0.665314 0.964641
lowerneck -4.1553 -1.37515 -0.524153
upperneck 10.9978 -1.79962 -0.0987948
head 4.36216 -0.913836 -0.0315645
rclavicle 1.9133e-015 -7.95139e-016
rhumerus -43.282 -27.3627 -66.7921
rradius 20.8136
rwrist 6.43802
rhand -17.2132 -34.533
rfingers 7.12502
rthumb 9.02964 -64.3197
lclavicle 1.9133e-015 -7.95139e-016
lhumerus -32.9645 3.39816 87.8938
lradius 29.731
lwrist 3.00022
lhand -21.9129 -18.7311
lfingers 7.12502
lthumb 4.49285 11.2013
rfemur -34.3141 -0.391535 26.2949
rtibia 36.2135
rfoot -19.1017 5.56075
rtoes -5.26089
lfemur -35.796 2.57591 -18.0608
ltibia 76.0104
lfoot 2.0803 -2.50075
ltoes -9.91031
356
root 0.288052 16.1793 37.403 17.037 4.65468 -1.08896
lowerback -15.6071 -0.617702 1.82669
upperback -5.82515 -1.16979 2.59663
thorax 2.58699 -0.570823 1.4865
lowerneck -4.25107 -1.39545 -0.489664
upperneck 11.2177 -1.81591 -0.220843
head 4.45969 -0.926366 -0.0816488
rclavicle 3.85145e-015 -3.4191e-014
rhumerus -41.267 -24.9138 -69.6625
rradius 22.4815
rwrist 3.46144
rhand -16.6521 -35.7489
rfingers 7.12502
rthumb 9.57098 -65.5115
lclavicle 3.85145e-015 -3.4191e-014
lhumerus -33.5236 4.67125 87.3722
lradius 27.3512
lwrist 0.875659
lhand -21.7754 -19.0077
lfingers 7.12502
lthumb 4.62565 10.9218
rfemur -33.166 0.161802 25.739
rtibia 35.9047
rfoot -19.6295 4.97407
rtoes -7.63641
lfemur -36.9896 3.04225 -18.7855
ltibia 75.5961
lfoot 0.723086 -1.91568
ltoes -9.00129
357
root 0.300999 16.2012 37.602 16.7908 4.76944 -1.15447
lowerback -15.2278 -0.604343 2.07659
upperback -5.8811 -1.17065 2.54373
thorax 2.31984 -0.575649 1.29339
lowerneck -3.88319 -1.37556 -0.423118
upperneck 11.2657 -1.78682 -0.308379
head 4.40113 -0.91355 -0.118331
rclavicle 1.98039e-014 -1.66979e-014
rhumerus -39.7834 -22.3976 -72.1076
rradius 24.1775
rwrist 0.604147
rhand -16.6286 -36.001
rfingers 7.12502
rthumb 9.59374 -65.7625
lclavicle 1.98039e-014 -1.66979e-014
lhumerus -34.5653 6.13464 86.5358
lradius 25.2621
lwrist -1.70425
lhand -21.1186 -18.9442
lfingers 7.12502
lthumb 5.25988 10.9705
rfemur -31.7858 -0.509724 25.9598
rtibia 35.432
rfoot -20.177 5.4346
rtoes -7.60853
lfemur -38.1164 2.91731 -18.8846
ltibia 75.0019
lfoot -0.532606 -1.16241
ltoes -7.49761
358
root 0.301129 16.2149 37.7939 16.786 4.20793 -0.430849
lowerback -14.7669 -0.597663 1.25587
upperback -6.06854 -1.01978 2.28299
thorax 1.88696 -0.49588 1.51344
lowerneck -3.43152 -1.32619 -0.382585
upperneck 11.2244 -1.72582 -0.307377
head 4.29501 -0.881745 -0.11786
rclavicle 1.51573e-015 -1.43125e-014
rhumerus -38.481 -19.952 -74.2501
rradius 25.6537
rwrist -1.94144
rhand -16.8467 -35.5429
rfingers 7.12502
rthumb 9.38328 -65.3141
lclavicle 1.51573e-015 -1.43125e-014
lhumerus -35.7226 8.0019 85.279
lradius 23.2233
lwrist -4.86268
lhand -20.074 -18.2201
lfingers 7.12502
lthumb 6.26835 11.6672
rfemur -30.9388 -0.43307 25.1406
rtibia 35.1859
rfoot -20.4456 5.74622
rtoes -6.37292
lfemur -39.2996 3.07874 -19.9754
ltibia 74.0865
lfoot -1.96073 -0.380771
ltoes -6.79944
359
root 0.307615 16.2183 37.9943 16.474 4.33132 -1.13537
lowerback -14.7426 -0.500404 2.02943
upperback -5.77859 -1.01017 2.4249
thorax 2.16679 -0.497869 1.22537
lowerneck -3.77521 -1.32779 -0.365332
upperneck 11.3297 -1.72396 -0.340226
head 4.40164 -0.881674 -0.135535
rclavicle -1.42876e-014 1.43125e-014
rhumerus -36.7852 -17.7976 -76.2146
rradius 27.252
rwrist -4.09592
rhand -16.6852 -35.3778
rfingers 7.12502
rthumb 9.53906 -65.1418
lclavicle -1.42876e-014 1.43125e-014
lhumerus -36.2845 10.0313 83.9716
lradius 21.1549
lwrist -8.19042
lhand -19.0822 -17.3532
lfingers 7.12502
lthumb 7.22584 12.5034
rfemur -29.6547 -0.889495 26.0494
rtibia 34.931
rfoot -21.1124 6.15923
rtoes -4.36359
lfemur -40.3028 3.1726 -19.3407
ltibia 73.1382
lfoot -3.41643 0.078895
ltoes -5.82131
360
root 0.293147 16.2166 38.2162 16.6318 3.63908 -0.614964
lowerback -15.6329 -0.397854 1.11393
upperback -5.34183 -0.780459 2.29413
thorax 3.11129 -0.374744 1.63841
lowerneck -4.3575 -1.36067 -0.376651
upperneck 11.3877 -1.76051 -0.374447
head 4.54025 -0.901795 -0.152592
rclavicle -8.84592e-015 -2.14687e-014
rhumerus -35.1663 -15.7381 -77.9222
rradius 29.3231
rwrist -6.15067
rhand -16.7784 -35.2523
rfingers 7.12502
rthumb 9.44913 -65.0205
lclavicle -8.84592e-015 -2.14687e-014
lhumerus -36.6684 12.1749 82.57
lradius 19.1557
lwrist -11.6637
lhand -18.0749 -16.8815
lfingers 7.12502
lthumb 8.19805 12.9395
rfemur -28.8112 -0.652538 25.4263
rtibia 34.8153
rfoot -21.7067 6.65302
rtoes -0.920265
lfemur -41.4273 3.51822 -20.2081
ltibia 71.831
lfoot -4.50255 0.76665
ltoes -4.71792
361
root 0.306408 16.2303 38.4392 16.8737 3.48999 -0.0796111
lowerback -15.6195 -0.433606 0.78565
upperback -5.71464 -0.757988 2.03049
thorax 2.71154 -0.362865 1.55198
lowerneck -3.76206 -1.31235 -0.319199
upperneck 11.4459 -1.70555 -0.350532
head 4.44067 -0.871144 -0.146865
rclavicle -7.85199e-015 7.95139e-015
rhumerus -35.0055 -13.4538 -79.2335
rradius 31.6358
rwrist -8.1372
rhand -17.0132 -35.2419
rfingers 7.12502
rthumb 9.22263 -65.0202
lclavicle -7.85199e-015 7.95139e-015
lhumerus -38.5494 14.078 80.5899
lradius 17.4421
lwrist -14.9152
lhand -17.3495 -17.1536
lfingers 7.12502
lthumb 8.89812 12.6388
rfemur -28.1101 -1.62669 24.9178
rtibia 34.5489
rfoot -22.0712 8.49136
rtoes 4.27694
lfemur -42.4751 3.2403 -21.0827
ltibia 70.3331
lfoot -5.48032 1.73462
ltoes -4.41486
362
root 0.329287 16.24 38.6494 16.9539 3.62675 -0.34869
lowerback -15.4865 -0.38548 1.4524
upperback -5.92376 -0.781271 1.9712
thorax 2.41078 -0.381334 1.10998
lowerneck -3.35581 -1.26534 -0.286762
upperneck 11.4015 -1.64824 -0.333554
head 4.3427 -0.840708 -0.140259
rclavicle -1.73937e-015 5.56597e-015
rhumerus -34.4308 -11.5954 -80.3336
rradius 33.5546
rwrist -9.52932
rhand -16.8503 -35.4606
rfingers 7.12502
rthumb 9.37978 -65.2319
lclavicle -1.73937e-015 5.56597e-015
lhumerus -40.4172 16.1771 78.3566
lradius 16.0343
lwrist -18.3128
lhand -16.8638 -17.6541
lfingers 7.12502
lthumb 9.36679 12.1178
rfemur -27.4521 -2.89567 25.3651
rtibia 34.4324
rfoot -22.5272 10.1669
rtoes 6.20903
lfemur -43.4876 2.99996 -21.0051
ltibia 68.7143
lfoot -6.4717 2.51413
ltoes -3.4316
363
root 0.345498 16.2338 38.8469 17.0232 3.67052 -1.13433
lowerback -15.6152 -0.235802 2.45231
upperback -5.80582 -0.743923 2.12527
thorax 2.59021 -0.369666 0.712473
lowerneck -3.67252 -1.25571 -0.26693
upperneck 11.4844 -1.62752 -0.406201
head 4.4356 -0.8332 -0.170397
rclavicle 1.2921e-015 -3.18055e-015
rhumerus -33.1596 -9.98902 -81.2948
rradius 35.2199
rwrist -10.6724
rhand -16.8301 -34.9803
rfingers 7.12502
rthumb 9.39931 -64.7508
lclavicle 1.2921e-015 -3.18055e-015
lhumerus -41.9318 18.8478 75.8161
lradius 14.9505
lwrist -22.9579
lhand -15.8284 -17.2452
lfingers 7.12502
lthumb 10.3657 12.4793
rfemur -26.7561 -3.87468 26.3683
rtibia 34.2764
rfoot -23.0925 11.0524
rtoes 4.41346
lfemur -44.661 3.07074 -20.3462
ltibia 67.0167
lfoot -7.3353 2.97491
ltoes -2.0551
364
root 0.311838 16.2148 39.0475 17.2914 2.29459 -0.717692
lowerback -16.0352 -0.000997147 1.3361
upperback -5.59204 -0.285053 2.00146
thorax 3.0478 -0.132731 1.2946
lowerneck -4.0803 -1.25966 -0.178234
upperneck 11.5617 -1.63243 -0.46177
head 4.54481 -0.834609 -0.209196
rclavicle -4.39811e-015 1.59028e-014
rhumerus -31.9345 -8.60881 -82.183
rradius 36.9544
rwrist -11.9003
rhand -17.0362 -33.5804
rfingers 7.12502
rthumb 9.20037 -63.3597
lclavicle -4.39811e-015 1.59028e-014
lhumerus -43.4079 21.4891 72.9486
lradius 13.8809
lwrist -27.8212
lhand -14.4274 -16.4949
lfingers 7.12502
lthumb 11.717 13.1574
rfemur -26.2079 -2.56789 25.7564
rtibia 34.1115
rfoot -23.5167 9.99632
rtoes 0.476125
lfemur -45.825 3.96777 -21.1068
ltibia 65.0171
lfoot -7.74767 3.47796
ltoes -3.07047
365
root 0.320578 16.2006 39.2539 17.5084 1.99494 -0.348483
lowerback -16.3512 0.0244645 1.041
upperback -5.49075 -0.208061 1.81035
thorax 3.32229 -0.0941731 1.276
lowerneck -4.33496 -1.26057 -0.144738
upperneck 11.5419 -1.63071 -0.50717
head 4.58852 -0.834653 -0.232555
rclavicle 3.35449e-015 7.95139e-016
rhumerus -31.0277 -7.35515 -82.8417
rradius 38.8063
rwrist -12.8354
rhand -16.2053 -34.0504
rfingers 7.12502
rthumb 10.0021 -63.7927
lclavicle 3.35449e-015 7.95139e-016
lhumerus -45.3225 24.2111 69.6334
lradius 12.8521
lwrist -32.3993
lhand -13.2639 -16.1094
lfingers 7.12502
lthumb 12.8388 13.4757
rfemur -25.4898 -3.46851 25.4378
rtibia 33.9565
rfoot -24.0205 10.7736
rtoes 1.29262
lfemur -46.7502 3.74111 -21.6907
ltibia 62.8079
lfoot -7.83138 4.22238
ltoes -5.78811
366
root 0.343818 16.1946 39.478 17.6877 1.99847 -0.349955
lowerback -16.3856 0.0264752 1.35132
upperback -5.71476 -0.245649 1.71381
thorax 3.10227 -0.115512 0.991278
lowerneck -4.15502 -1.21838 -0.1007
upperneck 11.6299 -1.56999 -0.577821
head 4.58328 -0.806432 -0.260043
rclavicle -1.11816e-015 6.36111e-015
rhumerus -30.7879 -5.89485 -83.3917
rradius 40.9459
rwrist -13.6321
rhand -15.7463 -35.0964
rfingers 7.12502
rthumb 10.4449 -64.817
lclavicle -1.11816e-015 6.36111e-015
lhumerus -48.1733 26.4114 65.9436
lradius 12.1931
lwrist -36.6308
lhand -12.4039 -15.931
lfingers 7.12502
lthumb 13.6677 13.6002
rfemur -24.761 -4.93622 25.5156
rtibia 33.878
rfoot -24.1085 13.0078
rtoes 7.64722
lfemur -47.42 3.40578 -21.8488
ltibia 60.3782
lfoot -7.97971 5.06427
ltoes -6.66557
